<?xml version="1.0" encoding="utf-8"?>
<!-- Generator: Adobe Illustrator 21.0.0, SVG Export Plug-In . SVG Version: 6.00 Build 0)  -->
<svg version="1.1" id="Слой_1" xmlns="http://www.w3.org/2000/svg" xmlns:xlink="http://www.w3.org/1999/xlink" x="0px" y="0px"
	 viewBox="0 0 1920 1080" style="enable-background:new 0 0 1920 1080;" xml:space="preserve">
<style type="text/css">
	.st0{fill:#00558D;}
</style>
<g>
	<path class="st0" d="M705.7,509.9h-38.2v17.5h31v21.5h-31v31h-23.8v-91.4h62V509.9z"/>
	<path class="st0" d="M738,508.9c4.7,0,9,0.6,12.9,1.9c3.9,1.3,7.2,3.2,9.9,5.7c2.7,2.5,4.8,5.7,6.4,9.6c1.5,3.9,2.3,8.4,2.3,13.4
		v40.2h-21.7v-5.5c-2.4,2.2-5.3,4-8.7,5.3c-3.4,1.3-7.1,1.9-11.3,1.9c-3.9,0-7.3-0.6-10.3-1.7c-3-1.2-5.5-2.7-7.5-4.7
		c-2-2-3.5-4.3-4.5-6.9c-1-2.6-1.5-5.3-1.5-8.2c0-6.6,2.4-11.6,7.3-15.2c4.8-3.6,11.5-5.4,19.9-5.4h14.5v-1.1c0-2.5-0.8-4.6-2.4-6.3
		c-1.6-1.7-4.3-2.6-8.1-2.6c-3.3,0-6.3,0.7-8.9,2.2c-2.6,1.5-5.4,3.6-8.4,6.2l-11.1-15.1c4.5-4.6,9.3-8.1,14.2-10.4
		C725.8,510.1,731.5,508.9,738,508.9z M735.1,564.6c3,0,5.4-0.9,7.5-2.6c2-1.8,3-4.2,3-7.5v-0.6h-11.2c-4.2,0-6.4,1.8-6.4,5.3
		c0,1.7,0.6,3,1.8,3.9C731,564.1,732.8,564.6,735.1,564.6z"/>
	<path class="st0" d="M801.8,515.4c4.3-4.3,10.2-6.5,17.7-6.5c4.8,0,9.3,0.9,13.4,2.7c4.1,1.8,7.6,4.3,10.5,7.5
		c2.9,3.2,5.2,7.1,6.9,11.6c1.7,4.5,2.5,9.3,2.5,14.6c0,5.3-0.8,10.1-2.5,14.5s-3.9,8.2-6.9,11.4c-2.9,3.2-6.4,5.7-10.5,7.5
		c-4.1,1.8-8.6,2.7-13.4,2.7c-8.8,0-15.4-2.9-19.8-8.7v7.1H778V475.9h23.8V515.4z M814.9,530.5c-1.7,0-3.3,0.3-4.9,0.9
		c-1.6,0.6-3,1.5-4.3,2.8c-1.2,1.2-2.3,2.8-3,4.6c-0.8,1.8-1.2,4-1.2,6.5s0.4,4.7,1.2,6.5c0.8,1.8,1.8,3.4,3,4.6
		c1.2,1.2,2.7,2.1,4.3,2.6c1.6,0.6,3.3,0.8,4.9,0.8c1.8,0,3.5-0.3,5.1-0.9c1.7-0.6,3.1-1.5,4.4-2.8c1.2-1.2,2.2-2.8,3-4.6
		c0.7-1.8,1.1-4,1.1-6.4c0-2.4-0.4-4.5-1.2-6.4c-0.8-1.8-1.8-3.4-3-4.6c-1.2-1.2-2.7-2.2-4.3-2.8
		C818.3,530.8,816.6,530.5,814.9,530.5z"/>
	<path class="st0" d="M928.1,488.4c5,0,9.6,0.7,14,2.2c4.3,1.5,8.1,3.6,11.2,6.2c3.1,2.7,5.6,6,7.4,9.9c1.8,3.9,2.7,8.3,2.7,13.1
		c0,4.7-0.9,9-2.7,12.9s-4.3,7.2-7.4,10c-3.1,2.8-6.9,4.9-11.2,6.4c-4.3,1.5-9,2.3-14,2.3h-12v28.4h-23.8v-91.4H928.1z M916.1,509.2
		v21.5h12.2c3.3,0,6-1,8-3c2-2,3-4.6,3-7.8c0-3.2-1-5.8-3-7.8c-2-1.9-4.6-2.9-8-2.9H916.1z"/>
	<path class="st0" d="M1007.8,509.5c2.5,0,4.8,0.4,6.8,1.1v21.1h-5.7c-5.3,0-9.3,1.2-12.2,3.7c-2.9,2.5-4.3,6.8-4.3,12.9v31.6h-23.8
		v-69.3h21.7v7.3c2.1-2.7,4.7-4.8,7.7-6.2C1001,510.2,1004.3,509.5,1007.8,509.5z"/>
	<path class="st0" d="M1051.1,508.9c5.2,0,10.1,0.9,14.7,2.8c4.6,1.8,8.6,4.4,12,7.6c3.4,3.2,6.1,7.1,8.1,11.5c2,4.4,3,9.2,3,14.4
		c0,5.2-1,10-3,14.4c-2,4.4-4.7,8.3-8.1,11.5c-3.4,3.2-7.4,5.8-12,7.6c-4.6,1.8-9.5,2.8-14.7,2.8c-5.3,0-10.2-0.9-14.8-2.8
		c-4.6-1.8-8.5-4.4-11.9-7.6c-3.4-3.2-6-7.1-8-11.5c-2-4.4-3-9.2-3-14.4c0-5.2,1-10,3-14.4c2-4.4,4.7-8.3,8-11.5
		c3.4-3.2,7.3-5.8,11.9-7.6C1041,509.8,1045.9,508.9,1051.1,508.9z M1051.3,530.8c-4.1,0-7.3,1.3-9.8,4c-2.4,2.7-3.7,6.1-3.7,10.4
		c0,4.3,1.2,7.8,3.7,10.5c2.4,2.6,5.7,3.9,9.8,3.9c3.8,0,6.9-1.3,9.5-3.9c2.5-2.6,3.8-6.1,3.8-10.5c0-4.2-1.3-7.7-3.8-10.4
		C1058.2,532.1,1055.1,530.8,1051.3,530.8z"/>
	<path class="st0" d="M1178.1,508.9c8.4,0,15,2.6,19.7,7.7c4.7,5.1,7.1,12,7.1,20.6v42.7H1181v-39.2c0-3.2-0.9-5.7-2.8-7.5
		c-1.8-1.8-4.2-2.7-7.1-2.7c-2.9,0-5.2,0.9-6.9,2.7c-1.8,1.8-2.6,4.3-2.6,7.5v39.2h-23.8v-39.2c0-3.2-0.9-5.7-2.8-7.5
		c-1.8-1.8-4.2-2.7-7.1-2.7c-2.9,0-5.2,0.9-6.9,2.7c-1.8,1.8-2.6,4.3-2.6,7.5v39.2h-23.8v-69.3h21.7v5.4c2.3-2.1,5-3.8,8.2-5.1
		c3.1-1.3,6.7-1.9,10.8-1.9c4.3,0,8.2,0.8,11.6,2.3c3.4,1.5,6.2,3.7,8.5,6.6c2.7-2.7,6-4.8,9.8-6.4
		C1169.1,509.7,1173.4,508.9,1178.1,508.9z"/>
	<path class="st0" d="M1247.7,508.9c5.2,0,10.1,0.9,14.7,2.8c4.6,1.8,8.6,4.4,12,7.6c3.4,3.2,6.1,7.1,8.1,11.5c2,4.4,3,9.2,3,14.4
		c0,5.2-1,10-3,14.4c-2,4.4-4.7,8.3-8.1,11.5c-3.4,3.2-7.4,5.8-12,7.6c-4.6,1.8-9.5,2.8-14.7,2.8c-5.3,0-10.2-0.9-14.8-2.8
		c-4.6-1.8-8.5-4.4-11.9-7.6c-3.4-3.2-6-7.1-8-11.5c-2-4.4-3-9.2-3-14.4c0-5.2,1-10,3-14.4c2-4.4,4.7-8.3,8-11.5
		c3.4-3.2,7.3-5.8,11.9-7.6C1237.5,509.8,1242.4,508.9,1247.7,508.9z M1247.8,530.8c-4.1,0-7.3,1.3-9.8,4c-2.4,2.7-3.7,6.1-3.7,10.4
		c0,4.3,1.2,7.8,3.7,10.5c2.4,2.6,5.7,3.9,9.8,3.9c3.8,0,6.9-1.3,9.5-3.9c2.5-2.6,3.8-6.1,3.8-10.5c0-4.2-1.3-7.7-3.8-10.4
		C1254.8,532.1,1251.6,530.8,1247.8,530.8z"/>
</g>
</svg>
